<svg width="40" height="40" viewBox="0 0 40 40" fill="none" xmlns="http://www.w3.org/2000/svg">
<rect width="40" height="40" rx="4" fill="white"/>
<path fill-rule="evenodd" clip-rule="evenodd" d="M20.7071 12.2929C20.3166 11.9024 19.6834 11.9024 19.2929 12.2929L12.2934 19.2924L12.2929 19.2929L12.2103 19.3864M12.2934 20.7076L19.2929 27.7071L19.3871 27.7903C19.7794 28.0953 20.3466 28.0676 20.7071 27.7071L20.7903 27.6129C21.0953 27.2206 21.0676 26.6534 20.7071 26.2929L15.4149 21H27L27.1166 20.9933C27.614 20.9355 28 20.5128 28 20C28 19.4477 27.5523 19 27 19H15.4149L20.7071 13.7071L20.7903 13.6129C21.0953 13.2206 21.0676 12.6534 20.7071 12.2929" fill="#303951"/>
</svg>
